<?xml version="1.0" encoding="UTF-8"?>
<svg id="Ebene_1" data-name="Ebene 1" xmlns="http://www.w3.org/2000/svg" viewBox="0 0 273.67 78.08">
  <defs>
    <style>
      .cls-1 {
        fill: none;
      }
    </style>
  </defs>
  <path class="cls-1" d="M140.91,76.33c1.15.37,2.15-.05,3.22-.31,7.66-1.88,12.17-5.07,18.07-9.91.95-.78,1.59-1.88,2.35-2.81,1.95-2.38,3.56-4.83,5.13-7.52,2.28-3.91.85-3.23,3.19-6.28.14-.63.38-1.87.43-2.54l.29-3.94c.2-2.67.3-7.62-.15-10.13l-.57-3.18c-.28-1.55-.63-2.91-1.32-4.29l-1.9-3.79c-1.08-2.16-3.2-5.49-4.66-7.15l-3.25-3.7-1.89-1.34c-1.19-.85-6.29-5.42-9.3-6.32l-2.37-.71c-6.28-1.88-9-2.6-15.7-2.37-5.36.18-5.51.41-10.8,1.82-2.23.59-7.24,2.74-9.03,4.17l-2.01,1.6c-.74.59-1.37,1.14-2.14,1.71-5.12,3.73-2.47,2.48-4.94,5.04-1.77,1.84-3.06,3.78-4.23,6.03-3.7,7.09-4.1,10.92-4.42,18.88-.21,5.18,1.24,11.2,3.65,15.79l1.33,2.54c1.82,3.46,4.92,6.76,7.76,9.4,1.52,1.41,3,2.84,4.86,3.8.57,2.3,1.38.87,4.68,2.85,1.36.82,6.9,2.57,8.4,2.78l4.53.63c3.69.52,7.29.74,10.77-.76ZM38.96,9.59c-.02.75,1.68,1.38,2.51,1.34.75-.03,2.16-.75,2.38-1.69.36-1.54-.13-3.04-.35-4.61-.15-1.08.06-2.55-.49-3.49s-2.41-.95-3.26-.63c-.25.09-.84.9-.61,1.02l.73.4c.22.12.79.25.73.44-.29,1.01-1.47,2.35-.05,3.08.94.48,1.81,2.25.74,2.99-.54.37-2.31-.15-2.34,1.16ZM13.58,9.27l.35-2.72c.22-1.68.15-3.44-.83-4.88-.56-.83-1.81-1.34-2.67-1.14-2.46.58-2.21,4.17-1.94,6.22l.31,2.38c.1.74,1.66,1.38,2.4,1.41.69.03,2.27-.48,2.38-1.27ZM3.18.7L.77,1.44c-.21.07-.59.47-.7.64-.52.8,1.99-.06,1.97,1.97-.01,1.8.07,4.15.24,5.88.04.35,1.08.63,1.32.41,1.23-1.17.15-7.67-.43-9.64ZM23.54,9.59c.76-1.75.98-5.83-.23-7.6-.68-1-1.67-1.46-2.75-1.21-.87.2-1.9,1.14-1.91,2.22-.01,2.5-.48,6.77,2.06,7.42.8.2,2.44.08,2.83-.82ZM28.99,9.31c-.26,1.05,2.14,1.96,3.37,1.31.72-.38,1.65-1.32,1.91-2.11-.52-1.68-1.26-3.49-1.17-5.2l.12-2.24c-1.44-.36-2.74-.77-4.25.26l2.2,1.39c-3.01,3.47,2.08,2.76.86,5.92-.47,1.21-2.79-.36-3.05.67ZM202.12,59.64c-.05,5.29.27,7.37.29,12.51l3.11.17,4.14.07c1.3.02,2.62-.04,3.87-.01l5.71.11c1.4.03,2.94.08,4.27.26,3.79.51,4.76-.13,8.68-.12l5.6.02c2.05,0,3.97-.23,6.19.07-1.88.82-3.19,1.34-3.7,3.53-2.82-1.27-2.57-4.25-7.36-2.79-.21.06-.58.87-.38.95.15.06.61.17.75.11l1.53-.61c1.91.35,2.91,1.63,3.63,3.38.9.56,2.59.21,3.58-.21l2.22-.94-2.05-1.12c3.25-1.66,2.53-1.43,5.77-.34-.2-1.87-2.11-1.71-3.37-1.5-.51-.31-.61-.41.04-.37l9.57-.47c3.58-.18,4.11.36,7.62-.16,4.06-.6,5.61.22,5.55-1.44l-.07-2.15c-.04-1.22-.07-2.4.03-3.69l.25-3.22c.05-.64-.45-1.96-.48-2.69-.04-1.14.02-2,.04-3.06l.05-4.04c.02-1.28-.05-2.24-.11-3.57l-.3-6.62c-.01-.29.67-.94.83-.73.13.17.33.58.42.85.86,2.84,3.21,1.87,3.8,3.55l-2,1.5c-1.16.87-2,2.04-1.67,3.56,1.07,4.95,3.32,3.08,3.18,4.65-1.05.77-2.4,1.32-2.75,2.41-.53,1.69-.02,3.66,1.12,4.94l1.76,1.1c.46.29-.34,1.29-.75,1.56l-1.91,1.25-.24,2.14c-.09.83.28,3.77,1.91,3.52-2.38-8.03,3.83-5.4,2.61-8.64-1.71-.6-3.34-1.55-3.52-3.54-.3-3.32,3.41-3.5,3.97-4.66.64-1.33-3.11-1.64-3.85-2.98-.82-1.98.03-4.34,2.04-4.81,1.3-.31,2.03-1.08,1.66-2.5-.53-2.02-2.91-.91-3.62-2.82-.19-.51.1-1.59.15-2.16.39-4.34,3.85-2.77,3.25-4.74-.46-1.51-3.27.31-4.17-3.01-.25-.91.21-2.73.47-3.63.05-.17-.54-.63-.64-.49l-.5.63c-.51.63-.95,1.05-1.71,1.55-.34-2.77.15-5.11.03-7.76l-.15-3.44c-.11-2.65.07-5.27-.02-7.93-.01-.41-.46-1.37-.3-1.79.2-.51.47-1.62.22-2.08-.29-.52-.99-1.01-1.53-1.02-4.77-.11-3.9-.75-7.85-.13-.13-.66-.31-1.23-.17-1.52.12-.23,2.13-2.05,2.58-1.85,1.11.5,1.79,2.85,5.44,2.7,2.63-.11,3.73-4.26,5.02-3.16s1.41,3.24.7,4.58l-1.69,1.36c.6.71,1.25.24,1.72.05,1.73-.7,2.17-1.66,1.9-3.46-.14-.92.39-2.9-.65-3.56-1.17-.74-3-.39-4.31-.2.09,2.08-1.07,2.95-2.75,3.38-1.56.4-3.01.16-3.59-1.63-.24-.73-.65-1.55-1.28-1.81s-1.86-.2-2.04.31c-.4,1.15-.58,2.36-1.52,2.7-1.3.48-2.41.72-3.59.02-.73-.44-1.2-1.35-1.71-2.43s-2.96-1.05-3.34.06c-.64,1.9-1.79,2.92-3.68,3.19.9.69,1.6.9,2.24.55.72-.4,1.31-.89,1.65-1.63.37-.78,1.55-1.7,2.22-.94.51.58,1.13,1.55,1.72,1.83l2.96,1.4c-2.51.27-4.61.33-6.81.04-1.39-.18-2.43.03-3.77.15-2.71.24-5.43,0-8.26-.02-.02-.32,0-.56.07-.65,1.48-.92,2.56-2.17,3.1-3.67-2.74-2.31-.5,3.12-6.63,3.21l-.39,1.05c-.06.17-.72.23-.95.22l-5.55-.17,1.87-1.82c.63-.62,1.46-1.16,2.16-1.38.11,1.22,1.21,1.76,2.09,1.61-.74-1.21-1.15-2.01-1.35-3.03l-2.64-.04-.67,2.71-2.53.75c-1.24.37-2.78-.08-2.91-1.48-.08-.95-.43-1.98-.87-2.62-1.48,1.13-3.74.62-3.33,3.41-.84.24-1.89.6-2.78.7-2.12.23-2.8-2.95-3.73-3.49-.23-.13-1.14.31-1.1.57.23,1.34,1.77,2.88,3.19,3.89-1.91.63-3.82.07-5.58.49-.85.2-1.52.19-1.98-.6,1.1-.26,2.44-.56,2.86-1.38l1.34-2.59c-.06-.14-.94-.37-1.09-.16l-.5.71c-.62.87-1.65,2.1-2.58,2.54l-1.63.78,1.18.31c-.34.25-.95.63-.86.87.07.19.51.48.78.69-.23,1.6-.55,3.47.7,5.02.41.5,1.74,0,2.51-.33.67.13,2.07.44,2.72.62.43.12.66,1.24.52,1.64s-.7,1.11-1.15,1.09l-2.96-.11c-.89-.03-1.78-.13-2.13.53-.29.55-.26,1.77.24,2.1l8.25-.27c.91-.67,1.17-2.09,1.2-3.1l.08-3.13c.03-1.36-.86-1.88-2.11-1.89l-4.01-.03-1.37-2.19c.86-.16,2.02-.51,2.65-.52l2.8-.04,2.88-.02c-.13-.39-.26-.66-.45-.72l-.87-.26c1.88-.51,3.78-1.45,5.06-3.47l1.59,2.34-1.1,1.33c-.11.14-.26.53-.3.7-.08.39,6.33.4,5.74.43l4.65-.28c2.62-.16,8.16.19,10.95-.19,1.51-.21,3.27.54,4.78.51s3.12-.06,4.59-.19l4.69-.43c.92-.08,1.74-.07,2.68.09,4.45.77,3.07-.35,6.95.41l-.96,1.7,1.3.46.14,4.67c.05,1.86.03,3.68,0,5.6-.04,2.53.38,5.16-.35,7.56.4.41.96,1.19.8,1.57-.32.76-.58,1.6-.78,2.75-1.47-2.24-4.24,1.04-5.93-.66-.33-.34-.57-1.3-.35-1.63.6-.9,1.34-.15,2.52-1.06.24-.18-.23-1.04-.49-1.18-.55-.3-2.08-.38-2.55.09-1.1,1.09-1.58,3.35-.69,4.66,1.52,2.26.3,2.9,1.5,3.16.26.06.87-.26.88-.53l.05-1.14,1.02.47c.69.31-.08,1.94.51,2.32l.68.44c-.57,1-1.94.41-2.36-.27-.12-.2-.8-.68-.99-.58-.68.35-1.8,1.46-1.8,2.25.01,2.89,1.83,3.91,2.32,3.74l1.56-.54c.46-.16.52,1.3.29,1.74-.63,1.19.03,2,1.08,2.57l.96.51c.23.12.76-.75.56-.91l-.82-.63c-.23-.18-.59-.63-.68-.87.12.29,1.3-3,.11-4.52-.49-.62-1.44.51-1.91.92-.39.34-1.39-.47-1.42-.95-.04-.64.32-1.56.87-1.51l4.35.34c.28.02,1.06-.34,1.01-.57-.22-1.1-2.54-.72-2.72-1.69l-.52-2.81,3.4-.69c.67,2.04.54,3.79.21,5.64-.19,1.08.31,2.57.26,3.68l-.23,5.16-4.07.3-1.59-.93c-.7.89,0,1.95.97,2.13,1.68.31,3.02.07,4.94-.46l.14,8.78c0,.61-.2,1.93-.71,2.11-2.38.84-4.95,1.26-6.8,2.92-2.53,2.26-4.05,5.44-4.89,8.62-.33,1.27-1.03,1.63-2.29,1.64l-22.22.03h-4.18c-3.13.02-6.13.42-9.2-.09.51-1.36-.18-2.49-.44-3.67-.67-3.01-2.36-4.64-4.89-6.17-1.77-1.07-2.23-1.95-6.11-2.31-.42-.4-1.17-1.85-1.08-2.53.2-1.56-.07-3.07-.12-4.63l-.11-3.81-.05-5.35-.07-5.09-.27-9.61c-.07-2.47.54-4.93-.67-7.3-.83,1.62-.67,3.23-.44,4.95.19,1.41-.04,2.86.03,4.21l.28,4.76c.09,1.57-.12,3.06-.07,4.61l.15,3.97.03,5.5c.02,3.67.29,4.75.26,7.78l-.03,2.85ZM197.34,15.34c.93-1.34,1.25-.89,2.38-2.95.07-.9.11-2.42.1-3.24-.85-1.44-1.63-2.72-2.2-4.2-.34-.89.44-2.73,1.43-2.27,1.07.49,1.94,1.07,3.07,1.71l-1.44-3.09-5.03.15v2.5c0,.22-.72.48-.86.65s.41.7.5.95c1.14,3.15,3.24.78,3.4,3.55.07,1.3.5,3.27-.92,4.02-.81.43-1.67.79-2.03,1.54-.31.65-.16,1.85.48,2.16,1.54.73,2.4,1.59,3.43,2.91.73-2.44-3.02-3.34-2.3-4.37ZM242,4.09l-1.53-2.68c-.38.18-.72.25-.69.38l.15.72c.21,1.03.67,2.21,2.08,1.58ZM203.55,7.11l-2.21-.93c-.19-.08-.8.37-.92.53-.09.13.08.46.21.56.91.69,1.7.72,2.92-.16ZM202.48,20.1l.16-6.41.1-3.92c.02-.7-.53-1.5-1.36-1.23-.23,3.21,0,6.83.19,10.12.02.41-.46,1.37-.3,1.74.08.18.66.5.84.56s.37-.58.37-.87ZM252.22,11.77c.5.47,1.27,1.17,1.3,1.71.04.64-.27,1.81-.75,2.08l-2.01-.72c-.03-1.73.13-3.47-.47-5.12-.39-.82-2.7-.71-3.28.14-1.38,2,1.34,3.01.93,5.28l-2.18.08c-.93-2.59.65-3.19-.64-5.85l-2.46-.51c-.69.62-1.46,1.38-1.96,2.28-.35.63.7,1.39,1.22,1.81,1.58,1.28-.45,3.97,1.07,5.06,2.19.16,4.35.12,6.48-.15,3.41-.43,4.03.47,5.55-.3.5-.25,1.05-1.24,1.08-1.88l.21-4.24c.07-1.34-.95-2.2-2.31-2.14-.59.02-1.42.45-1.77.87-.28.33-.32,1.3,0,1.6ZM216.87,17.84c2.08,1.03,4.22,0,5.31-1.99,1.63.41,2.83,1.33,4.3,2.21.64.38,1.89-.16,2.07-.72.26-.79-.25-1.49-1.03-1.97,1.95-.58,1.93-4.74.95-5.61-1.06-.94-2.89-.62-3.75.35-.21.23-.46.95-.34,1.21.38.83,1.1.4,1.7,1.35.16.25-.06,1.17-.23,1.33-.81-.3-2-.67-2.56-1.08l-4.08-2.96c-.84-.61-1.79.34-1.99.95-.33,1.05-.06,1.61.99,2.24-1.87.38-1.95,3.41-1.34,4.68ZM239.34,17.77l-.06-2.48c0-.31.08-.83-.09-.97l-.74-.56.97-.42-.12-3.57-5.77-.33c-1.39-.08-2.77.04-3.58,1.41-.17.28-.34,1.09-.08,1.25.21.13.75.26,1.03.25l2.47-.04c.96-.02,2.69.03,2.83,1.34s-.14,2.79.36,3.99c.32.77,2.27.58,2.78.12ZM272.12,24.55l-2.21-.66c-1.52-1.74-1.03-4.27.97-5.37.62-.34,1.28-.73,1.94-1.16.42-.27.05-1.68-.32-2.13-.31-.38-.96-.61-1.68-.75-2.58-.53-1.74-3.89-2.14-4.81-.08-.18-.81-.05-.82.14-.13,3.01-.55,4.49,2.38,5.86.25.12.62.57.65.81.13,1.28-1.13.02-2.58,3.11-1.25,2.69.25,5.14,2.5,6.32.49.26,1.07,1.71,1.77,1.24.42-.28.65-1.15.53-1.52-.1-.32-.68-.98-1.01-1.08ZM262.58,14.85l.37-3.52c.04-.35-.04-.94-.17-1.21s-.88-.51-1.2-.49l-3.05.18c-.45.65-.66,1.95-.56,2.71l2.03.34c-.02,1.07.09,1.92.54,2.27.38.29,2,.2,2.05-.28ZM199.95,59.2c.1.22,1.02.35,1.13.14.49-.95-1.09-3.03-2.38-3.62-.35-.16-.88-.54-.77-.8.09-.2.42-.59.64-.75,2.12-1.52,3.01-4.62,1.33-6.79-.65-.85-1.31-1.98-1.28-2.99,1.53-1.41,2.33-2.93,1.98-4.98-.27-1.56-1.32-2.87-2.83-4.05-.07-.92,1.13-1.45,1.86-2.1,1.07-.95,1.54-3.77.52-4.91l-2.51-2.82c-1.27-1.42,4.05-2.81,1.8-5.82-2.07,6.49-4.55,1.93-3.85,6.54,1.11.52,2.69,1.36,3.44,2.08.42.4,1.4,4.39-2.03,5.46-.57.18-1.22,1.04-1.15,1.55.27,1.82,2.93,1.34,3.68,3.32.45,1.2.13,4.48-3.02,5.43-.46.14-.5,1.45-.24,1.87.99,1.61,3.72,1.2,3.66,4.43-.05,2.92-2.82,2.6-3.64,4.13-.18.34.01,1.3.37,1.47,3.89,1.79,2.38,1.34,3.27,3.23ZM204.92,28.91l6.63-.55c.74-1.02.54-4.07-.29-3.39-.99.81-.05,1.52-1.4,2.64l-5.85.14c-.24.55.33,1.21.91,1.16ZM207.78,31.51c-.17-.81-.36-1.68-.66-1.78l-1.09,2.31c-.82-.4-1.08-1.23-1.45-2.17-1.17.48-.92,2.54-.11,3.37l7.4-.19c.72-.88,1.05-2.5-.28-3.56l-1.25,2.35c-.46.47-2.43.36-2.58-.33ZM231.02,43.15c.7,2.13,2.99,2.88,4.85,1.8.35-.21.65-1.05.86-1.38.47-.43.81-1.02,1.16-2.12l1.62,2.62c1.2.88,3.49.95,4.51-.19,2.36-2.65,1.16-6.38,1.06-9.52-.07-2.16-1.23-3.6-3.37-3.86-1.37-.17-3.73.82-3.64,2.73l.15,3.19c.06,1.27.02,2.5-.17,3.67-.98-1.54-1.66-2.86-3.26-3.28l-1.85.1c-.3-.48-.32-1.45-.15-2.09.13-.47,1.16-1.14,1.61-.96.81.32,1.8.6,2.43.34.08-1.39-.8-2.16-2.01-2.38-1.51-.27-3.54.09-3.97,1.84-.75,3.02.48,5.96.14,9.48ZM225.18,45.73c1.94.7,4.09-.19,4.48-2.27s.34-4.42.12-6.65l-.23-2.23c-.29-.74-1.47-1.92-2.37-2.25-.8-.3-2.61.12-3.26.62-1.26.98-1.43,2.88-1.34,4.36l.34,5.33c.1,1.52.76,2.55,2.25,3.09ZM209.35,40.22c.19-.11.55-.24.91-.35l1.61-.51c.37-.12.27-1.28-.03-1.53l-2.31-1.94-1.07.76-2.22-.8c2.49-1.39,3.22,1.2,5.97-2.1-.65-.07-8.79,1.17-7.88,2.43.13.17.58.58.81.63l2.66.61,3.07.71c-1.03,2.7-4.39-1.42-6.42,1.28-.45.6-.27,2.19.35,2.76l7.28-.1c1.15-.82-4.22-1.02-2.72-1.85ZM211.76,43.5c-.87-.32-2.35-.27-3.24-.02l-1.42,2.12-1.46-.22c-.16-.12.13-.94.34-1.38.14-.29-.64-.66-.96-.62-.26.03-.66.55-.72.84-.27,1.37.45,2.4,1.62,2.69,2.89.72,2.43-4.15,5.33-2.12-.08.59-.76,1.32-1.39,1.86.97.66,2.18.05,2.47-.73.24-.64.48-2.04-.56-2.43ZM211.27,49.26c.31,0,.97-.47,1.09-.72s-.74-.67-1.02-.64c-4.54.5-5.88-1.19-7.19.65.49.67,1.69.57,2.56.59l4.56.12ZM218.13,63.38c0,.25.54,1.09.72.97l.82-.53c.25-.16.87-.78,1.07-.56l.81.88c.21.23.91.71,1.12.48.17-.18.17-.84.09-1.09-.97-3.48,2.39-2.58-.78-5.72l-1.55,2.12c.44.53.66,1.01.3,1.46-1.77-1.19-1.3-3.11-3.08-3.02-.35.02-.8,1-.53,1.21l1.09.83-.11,2.98ZM214.65,63.65c.02.25.64.84.88.79,1.79-.39,1.37-3.5.58-4.27-.99-.97-2.02-1.4-3.51-1.28-.51.04-1.1.67-.99,1.08.08.31.7.67,1.04.71l1.83.22.18,2.76ZM246.86,63.04c-2.43,1.2,3.83,1.33,4.77.84-1.46-2.96-1.02-.07-3.07-4.87l-5.04-.02c2.43,2.89-1.16,5.31.08,5.08.18-.03.85-.14.99-.28l2.42-2.34c.34-.33,1.14.13,1.67.7l-1.82.9ZM254.91,63.19c-.75-1.54.36-2.64,1.42-3.12.14-.16-.2-1.06-.47-1.06-.22,0-.53.08-.93.2-3.34,1.01-2.84-.65-4.12-.05-.35.16-.56,1.32-.23,1.38l2.08.36.58,3.28c.07.39,1.34.79,1.52.46.19-.36.33-1.06.14-1.44ZM227.22,61.68l1.35-2.08c-1.29-.47-2.58-.51-3.63-.13.33,1.63.51,2.71.64,4.31.04.5,1.66,1,1.65.54l-.02-2.64ZM241.38,60.93l-.67-1.33-3.06-.34c-1.07.68,2.17,3.59,2.82,3.74l.91-2.07ZM198.71,66.2l1.7,1.56c.2-1.95-2.25-1.47-2.04-3.55.11-1.11,2.54-1.09,1.9-2.62l-2.67,1.51c-.46.26-1.34.63-1.37,1.17-.02.38.31.96.5,1.42l.38.94c.65-.45,1.29-.73,1.6-.44ZM237.41,67.98c.94-4.25-2.65-.4-3.97-3.12-.17-.36-1.04-.64-1.33-.44-1.02.71-.46,2.3-.16,2.65.73.86,2.85.21,3.66,1.11l-3.08,1.37c-.33.15-.74.79-.98,1.26,2.3.35,5.27-.16,5.86-2.83ZM249.47,70.59c1.94-.51,2.97-1.51,2.89-3.63-.03-.73-.29-1.44-1.17-1.68-.43-.11-1.08-.05-1.31.19-.87.93.99,1.3.48,2.87-.14.43-1.3.93-1.46.55l-1.1-3.71c-.33-.15-.98-.1-1.09.15-.71,1.51.45.95.56,2.9.02.36-.3.97-.6.97-1.47-.03-1.36-4.45-3.49-4.02-.28.06-.94.63-.77.85l1.15,1.51c.78,1.02,1.16,2.44,2.18,2.91,1.32.61,2.31.5,3.73.12ZM241.86,70.87c-.33-1.69-.62-3.7.17-5.16l-2.25-.15c-.48-.03-.98.23-1.16.55-.28.51.14,1.06.65,1.36.39.23.89.55,1.01.83s-.13.9-.3,1.38c-.11.33.31,1.15.65,1.16l1.23.04ZM220,69.7l-.12-3.98-2.62.06.64,2.06c.14.51.25,1.62.34,2.27.05.36.81.84,1.14.75.28-.07.63-.84.62-1.15ZM225.88,70.71c1.68.48,3.19.7,4.94-.05l-2.56-3.14c-.35-.44-.33-2.1-1.42-1.54-.43.22-1.27.86-1.71.75-.39-.1-.99-.51-1.56-.87-.14.01-.62.95-.43,1.24s.63.73,1.01,1.08l-2.21,2.55c2.57.68,3.98-3.67,5.26-2.52.32.29.45,1.28.07,1.35-.73.13-1.52.59-1.39,1.15ZM203.82,73.38c-1.54-.34-1.7.31-2.22.96l-1.2,1.49c-.31.39-1.42.61-1.94.46-.45-.14-.83-.94-.86-1.6-.07-1.63,2.71-1.08,2.42-3.05-1.08.69-2.12,1.05-3.38,1.34-.41,1.13-.59,3.16-.03,4.37.3.65,3.72,1.57,5.19-.76l2.03-3.21ZM253.25,73.12c1.24.2,2.29,0,2.93.53,1.79,1.49.88,3.49,2.55,3.85,2.31.5,2.09-3.11,4.12-3.91,2.24-.88,4.29.94,5.14,2.88.58.25,1.63.02,2.24.03.7.01,1.52.08,2.1.03.67-.06,1.74-2.77.8-3.63-.53-.48-1.65-.88-2-.73.34.89.58,1.42.6,1.98.03.93-.74,1.6-1.44,1.77-2.24.57-1.52-3.28-5.18-3.2-1.02.02-2.69-.22-3.48.58l-2.58,2.59c-.67-2.49-4.25-4.03-5.8-2.77ZM223.04,74.03l-1.36.1c-.29.02-.41.85-.51,1.3-.07.32-.83.67-1.16.6-1.57-.35-.42-2.59-4.96-2.82-4.16-.21-3.4,2.29-4.74,3.01-.19.1-.84-.07-.96-.24l-1.62-2.41c-.18.08-4.01-1.6-3.14-.44.96,1.27,3.3-.11,3.8,4.07.72.36,2.07.62,2.63.35.73-1.52,1.71-3.36,3.36-3.56,2.03-.24,3.13,1.7,4.01,3.18.63.46,2.35.52,2.93.16l1.7-3.32ZM229.17,77.42c.3.87,2.1.55,2.28-.19l.59-2.45c-1.34.67-2.22.68-3.66.35l.79,2.29ZM250.84,76.03c-1.55-.3-1.97-.56-3.2-1.26l.66,2.17c.16.52,1.35.67,1.81.49.43-.17,1.01-1.23.72-1.39Z"/>
  <path d="M13.58,9.27c-.1.79-1.69,1.3-2.38,1.27-.73-.03-2.3-.67-2.4-1.41l-.31-2.38c-.27-2.05-.51-5.64,1.94-6.22.86-.2,2.11.31,2.67,1.14.97,1.44,1.04,3.2.83,4.88l-.35,2.72ZM11.89,3.47c-.13-.41-1.36-.71-1.6-.39-.54.72-.82,4.59.24,5.93.57.71,2.87-.74,1.36-5.54Z"/>
  <path d="M38.96,9.59c.03-1.31,1.8-.79,2.34-1.16,1.07-.73.2-2.5-.74-2.99-1.42-.73-.24-2.07.05-3.08.05-.18-.52-.32-.73-.44l-.73-.4c-.22-.12.36-.93.61-1.02.85-.31,2.72-.3,3.26.63s.33,2.42.49,3.49c.22,1.57.72,3.07.35,4.61-.22.94-1.63,1.66-2.38,1.69-.84.04-2.53-.59-2.51-1.34Z"/>
  <path d="M23.54,9.59c-.39.9-2.03,1.03-2.83.82-2.55-.65-2.07-4.91-2.06-7.42,0-1.08,1.04-2.01,1.91-2.22,1.08-.25,2.07.21,2.75,1.21,1.21,1.77.99,5.85.23,7.6ZM21.49,8.92c.91-1.02.74-2.86.48-4.23-.13-.69.27-1.38-.36-1.73-.36-.2-1.24-.47-1.42-.1-1.04,2.16-.27,7.82,1.31,6.06Z"/>
  <path d="M28.99,9.31c.26-1.04,2.58.54,3.05-.67,1.22-3.16-3.88-2.45-.86-5.92l-2.2-1.39c1.51-1.03,2.8-.63,4.25-.26l-.12,2.24c-.09,1.72.65,3.52,1.17,5.2-.25.79-1.18,1.73-1.91,2.11-1.23.65-3.63-.26-3.37-1.31Z"/>
  <path d="M3.18.7c.58,1.97,1.66,8.47.43,9.64-.23.22-1.28-.05-1.32-.41-.17-1.73-.26-4.08-.24-5.88.01-2.03-2.49-1.17-1.97-1.97.11-.17.49-.57.7-.64l2.4-.74Z"/>
  <path class="cls-1" d="M11.89,3.47c1.52,4.8-.78,6.25-1.36,5.54-1.07-1.34-.78-5.21-.24-5.93.24-.32,1.47-.02,1.6.39Z"/>
  <path class="cls-1" d="M21.49,8.92c-1.58,1.76-2.35-3.9-1.31-6.06.18-.37,1.06-.1,1.42.1.63.35.23,1.04.36,1.73.26,1.37.43,3.21-.48,4.23Z"/>
  <g>
    <g>
      <path d="M202.12,59.64l.03-2.85c.03-3.03-.24-4.11-.26-7.78l-.03-5.5-.15-3.97c-.06-1.54.16-3.04.07-4.61l-.28-4.76c-.08-1.34.15-2.8-.03-4.21-.23-1.72-.39-3.33.44-4.95,1.21,2.37.6,4.83.67,7.3l.27,9.61.07,5.09.05,5.35.11,3.81c.05,1.56.32,3.07.12,4.63-.09.68.66,2.13,1.08,2.53,3.88.36,4.34,1.24,6.11,2.31,2.53,1.53,4.21,3.16,4.89,6.17.27,1.18.95,2.31.44,3.67,3.07.5,6.07.11,9.2.1h4.18s22.22-.04,22.22-.04c1.26,0,1.95-.37,2.29-1.64.84-3.19,2.36-6.36,4.89-8.62,1.86-1.67,4.43-2.08,6.8-2.92.51-.18.72-1.49.71-2.11l-.14-8.78c-1.92.54-3.26.77-4.94.46-.96-.18-1.67-1.24-.97-2.13l1.59.93,4.07-.3.23-5.16c.05-1.11-.45-2.6-.26-3.68.33-1.85.46-3.6-.21-5.64l-3.4.69.52,2.81c.18.97,2.5.59,2.72,1.69.05.23-.73.6-1.01.57l-4.35-.34c-.55-.04-.91.88-.87,1.51.03.48,1.03,1.29,1.42.95.47-.41,1.42-1.54,1.91-.92,1.2,1.53.01,4.81-.11,4.52.1.24.46.69.68.87l.82.63c.2.16-.33,1.03-.56.91l-.96-.51c-1.06-.57-1.72-1.38-1.08-2.57.24-.45.17-1.9-.29-1.74l-1.56.54c-.48.17-2.3-.86-2.32-3.74,0-.79,1.12-1.9,1.8-2.25.2-.1.87.38.99.58.43.68,1.79,1.27,2.36.27l-.68-.44c-.59-.38.18-2.01-.51-2.32l-1.02-.47-.05,1.14c-.01.27-.62.58-.88.53-1.2-.26.02-.91-1.5-3.16-.88-1.31-.4-3.57.69-4.66.47-.47,2-.39,2.55-.09.26.14.73,1,.49,1.18-1.19.91-1.92.16-2.52,1.06-.22.33.02,1.29.35,1.63,1.69,1.7,4.46-1.58,5.93.66.2-1.14.46-1.99.78-2.75.16-.38-.4-1.16-.8-1.57.74-2.4.32-5.02.35-7.56.03-1.93.05-3.74,0-5.6l-.14-4.67-1.3-.46.96-1.7c-3.89-.76-2.5.35-6.95-.41-.93-.16-1.76-.17-2.68-.09l-4.69.43c-1.47.13-3.02.16-4.59.19s-3.27-.71-4.78-.51c-2.78.38-8.33.03-10.95.19l-4.65.28c.59-.03-5.82-.05-5.74-.43.04-.18.18-.57.3-.7l1.1-1.33-1.59-2.34c-1.29,2.03-3.18,2.96-5.06,3.47l.87.26c.19.06.32.33.45.72l-2.88.02-2.8.04c-.63,0-1.79.36-2.65.52l1.37,2.19,4.01.03c1.24.01,2.14.53,2.11,1.89l-.08,3.13c-.02,1-.29,2.43-1.2,3.1l-8.25.27c-.5-.32-.53-1.55-.24-2.1.35-.67,1.24-.57,2.13-.53l2.96.11c.45.02,1.01-.68,1.15-1.09s-.1-1.52-.52-1.64c-.65-.19-2.04-.49-2.72-.62-.76.32-2.1.83-2.51.33-1.25-1.55-.93-3.42-.7-5.02-.27-.22-.71-.5-.78-.69-.09-.24.52-.62.86-.87l-1.18-.31,1.63-.78c.93-.44,1.96-1.67,2.58-2.54l.5-.71c.15-.21,1.03.02,1.09.16l-1.34,2.59c-.42.82-1.77,1.12-2.86,1.38.46.8,1.13.8,1.98.6,1.76-.42,3.68.14,5.58-.49-1.42-1.02-2.96-2.56-3.19-3.89-.05-.26.87-.71,1.1-.57.93.55,1.61,3.73,3.73,3.49.89-.1,1.94-.45,2.78-.7-.41-2.79,1.85-2.29,3.33-3.41.44.64.78,1.67.87,2.62.13,1.41,1.67,1.85,2.91,1.48l2.53-.75.67-2.71,2.64.04c.2,1.02.61,1.82,1.35,3.03-.88.15-1.98-.39-2.09-1.61-.7.23-1.52.76-2.16,1.38l-1.87,1.82,5.55.17c.23,0,.89-.05.95-.22l.39-1.05c6.13-.1,3.89-5.53,6.63-3.21-.53,1.5-1.62,2.75-3.1,3.67-.07.09-.1.34-.07.65,2.83.01,5.56.26,8.26.02,1.33-.12,2.38-.33,3.77-.15,2.2.29,4.29.23,6.81-.04l-2.96-1.4c-.59-.28-1.21-1.24-1.72-1.83-.67-.75-1.86.16-2.22.94-.35.74-.93,1.24-1.65,1.63-.64.35-1.34.14-2.24-.55,1.89-.27,3.04-1.3,3.68-3.19.38-1.12,2.81-1.16,3.34-.06s.98,1.99,1.71,2.43c1.18.71,2.29.47,3.59-.02.93-.35,1.12-1.55,1.52-2.7.17-.5,1.43-.56,2.04-.31s1.04,1.08,1.28,1.81c.59,1.79,2.03,2.03,3.59,1.63,1.67-.43,2.84-1.3,2.75-3.38,1.31-.19,3.14-.54,4.31.2,1.04.66.51,2.64.65,3.56.27,1.8-.17,2.76-1.9,3.46-.47.19-1.12.66-1.72-.05l1.69-1.36c.71-1.34.63-3.43-.7-4.58s-2.39,3.05-5.02,3.16c-3.65.15-4.32-2.2-5.44-2.7-.45-.2-2.46,1.62-2.58,1.85-.15.3.04.86.17,1.52,3.94-.62,3.07.02,7.85.13.54.01,1.25.51,1.53,1.02.26.46-.01,1.56-.22,2.08-.16.41.29,1.37.3,1.79.09,2.66-.09,5.28.02,7.93l.15,3.44c.11,2.65-.37,4.98-.03,7.76.76-.5,1.2-.92,1.71-1.55l.5-.63c.11-.13.69.33.64.49-.26.9-.72,2.72-.47,3.63.9,3.32,3.71,1.5,4.17,3.01.6,1.97-2.86.39-3.25,4.74-.05.57-.35,1.64-.15,2.16.71,1.91,3.09.8,3.62,2.82.37,1.42-.35,2.2-1.66,2.5-2.01.47-2.86,2.83-2.04,4.81.74,1.35,4.49,1.65,3.85,2.98-.56,1.16-4.27,1.35-3.97,4.66.18,1.99,1.81,2.94,3.52,3.54,1.21,3.25-4.99.61-2.61,8.64-1.63.25-2-2.69-1.91-3.52l.24-2.14,1.91-1.25c.41-.27,1.21-1.27.75-1.56l-1.76-1.1c-1.14-1.28-1.65-3.25-1.12-4.94.34-1.09,1.69-1.63,2.75-2.41.14-1.57-2.11.3-3.18-4.65-.33-1.52.5-2.69,1.67-3.56l2-1.5c-.59-1.68-2.94-.71-3.8-3.55-.08-.27-.29-.68-.42-.85-.16-.21-.84.43-.83.73l.3,6.62c.06,1.34.12,2.3.11,3.57l-.05,4.04c-.01,1.06-.07,1.92-.04,3.06.03.73.53,2.05.48,2.69l-.25,3.22c-.1,1.29-.08,2.48-.03,3.69l.07,2.15c.06,1.67-1.49.85-5.55,1.44-3.52.52-4.04-.02-7.62.16l-9.57.47c-.66-.04-.55.06-.04.37,1.26-.21,3.17-.38,3.37,1.5-3.25-1.1-2.52-1.32-5.77.34l2.05,1.12-2.22.94c-.99.42-2.68.77-3.58.21-.73-1.74-1.72-3.03-3.63-3.38l-1.53.61c-.14.06-.6-.06-.75-.11-.2-.07.17-.88.38-.95,4.79-1.47,4.54,1.52,7.36,2.79.51-2.19,1.81-2.71,3.7-3.53-2.22-.29-4.14-.06-6.19-.07l-5.6-.02c-3.92-.01-4.89.63-8.68.12-1.33-.18-2.87-.23-4.27-.26l-5.71-.11c-1.25-.02-2.57.03-3.87.01l-4.14-.07-3.11-.17c-.02-5.14-.34-7.22-.29-12.51ZM269.11,37.28l1.73-1.47-2.09-1.42-1.65-2.97c-.85.42-.15,6.96-.03,7.81.91-.88,1.31-1.33,2.04-1.96ZM263.19,71.32l2.32-.36c.31-.05,1.12-.08,1.16-.36.03-.22.04-.63.04-.96l-.05-3.42c-.05-3.78-.94-3.36-.34-5.81-.47-.6-2.06-.57-2.9-.19l-2.91,1.3c-1.08.48-1.9.87-2.5,1.98-.55,1.03-1.78,2.08-2.13,3.12l-1.02,3.05c-.13.38-.1,1.32.25,1.52.36.21,1.19.11,1.71.11,2.11,0,4.32.33,6.37,0ZM214.09,69.96l-.73-2.8c-.39-1.5-1.08-2.7-2.28-3.68-.7-1.34-6.25-3.68-7.49-2.36-.46.57,0,2.06-.08,2.82l-.56,6.09c-.07.81.44,1.53,1.28,1.52l9.27-.05c.23,0,.89-.37.84-.57l-.25-.98Z"/>
      <path d="M231.02,43.15c.34-3.53-.89-6.46-.14-9.48.43-1.76,2.46-2.11,3.97-1.84,1.21.21,2.09.99,2.01,2.38-.63.26-1.63-.02-2.43-.34-.46-.18-1.49.49-1.61.96-.17.65-.15,1.61.15,2.09l1.85-.1c1.6.41,2.28,1.74,3.26,3.28.18-1.17.23-2.4.17-3.67l-.15-3.19c-.09-1.91,2.27-2.9,3.64-2.73,2.15.26,3.3,1.7,3.37,3.86.1,3.15,1.3,6.87-1.06,9.52-1.02,1.14-3.31,1.07-4.51.19l-1.62-2.62c-.35,1.1-.69,1.69-1.16,2.12-.2.33-.5,1.18-.86,1.38-1.86,1.08-4.15.33-4.85-1.8ZM240.34,41.64c.2.4,1.42.73,1.7.42.24-.26.68-.97.69-1.35l.19-5.78c.03-.81-.99-2.21-1.71-1.95-3.32,1.23-.37,4.87-2.03,6.29l1.16,2.37ZM235.5,42.99c.32-1.11.44-2.61-.07-3.53-.37-.67-2.44-.61-2.84.06-.6,1-.13,2.65.55,3.47.42.51,2.18.64,2.36,0Z"/>
      <path d="M252.22,11.77c-.32-.3-.28-1.28,0-1.6.35-.42,1.18-.84,1.77-.87,1.36-.06,2.38.8,2.31,2.14l-.21,4.24c-.03.64-.58,1.63-1.08,1.88-1.53.77-2.14-.13-5.55.3-2.13.27-4.28.31-6.48.15-1.53-1.09.51-3.79-1.07-5.06-.52-.42-1.58-1.18-1.22-1.81.5-.9,1.27-1.66,1.96-2.28l2.46.51c1.29,2.66-.29,3.25.64,5.85l2.18-.08c.41-2.26-2.31-3.27-.93-5.28.59-.85,2.89-.96,3.28-.14.6,1.65.44,3.39.47,5.12l2.01.72c.48-.27.79-1.44.75-2.08-.03-.55-.81-1.24-1.3-1.71Z"/>
      <path d="M216.87,17.84c-.62-1.27-.53-4.3,1.34-4.68-1.05-.63-1.31-1.19-.99-2.24.19-.61,1.15-1.56,1.99-.95l4.08,2.96c.56.41,1.76.78,2.56,1.08.17-.16.39-1.07.23-1.33-.6-.95-1.32-.52-1.7-1.35-.12-.26.14-.98.34-1.21.87-.97,2.69-1.29,3.75-.35.98.87.99,5.03-.95,5.61.78.48,1.29,1.18,1.03,1.97-.18.55-1.43,1.1-2.07.72-1.47-.88-2.67-1.79-4.3-2.21-1.09,1.99-3.22,3.03-5.31,1.99ZM219.35,14.14c-.23.36.01,1.33.36,1.46.25.09.64-.04.93-.3.23-.2.22-.85-.06-1.01-.24-.14-1.1-.38-1.24-.16Z"/>
      <path d="M199.95,59.2c-.88-1.9.63-1.44-3.27-3.23-.36-.17-.55-1.13-.37-1.47.82-1.53,3.59-1.21,3.64-4.13.06-3.23-2.67-2.82-3.66-4.43-.26-.42-.22-1.73.24-1.87,3.15-.95,3.48-4.23,3.02-5.43-.75-1.98-3.41-1.5-3.68-3.32-.08-.51.58-1.37,1.15-1.55,3.43-1.07,2.45-5.06,2.03-5.46-.75-.72-2.33-1.56-3.44-2.08-.7-4.61,1.77-.05,3.85-6.54,2.25,3.01-3.07,4.4-1.8,5.82l2.51,2.82c1.02,1.14.54,3.96-.52,4.91-.74.65-1.93,1.18-1.86,2.1,1.51,1.18,2.56,2.49,2.83,4.05.35,2.05-.44,3.57-1.98,4.98-.03,1.02.63,2.15,1.28,2.99,1.68,2.17.79,5.27-1.33,6.79-.22.16-.56.55-.64.75-.11.25.42.64.77.8,1.3.6,2.88,2.67,2.38,3.62-.11.21-1.03.08-1.13-.14Z"/>
      <path d="M225.18,45.73c-1.49-.54-2.16-1.57-2.25-3.09l-.34-5.33c-.09-1.48.07-3.38,1.34-4.36.64-.5,2.46-.91,3.26-.62.89.33,2.07,1.52,2.37,2.25l.23,2.23c.23,2.22.29,4.47-.12,6.65s-2.54,2.98-4.48,2.27ZM228.09,42.55c-.88-3.27.56-7.27-1.1-8.12-1.38-.7-2.64,1.34-2.53,2.63.38,4.84-.84,5.6,1.96,7.25l1.68-1.76Z"/>
      <path d="M239.34,17.77c-.51.46-2.46.65-2.78-.12-.5-1.21-.23-2.72-.36-3.99s-1.86-1.36-2.83-1.34l-2.47.04c-.28,0-.82-.12-1.03-.25-.26-.16-.09-.97.08-1.25.82-1.38,2.19-1.49,3.58-1.41l5.77.33.12,3.57-.97.42.74.56c.18.13.09.66.09.97l.06,2.48Z"/>
      <path d="M197.34,15.34c-.72,1.03,3.03,1.93,2.3,4.37-1.03-1.33-1.89-2.18-3.43-2.91-.65-.31-.8-1.51-.48-2.16.36-.74,1.22-1.11,2.03-1.54,1.43-.75,1-2.71.92-4.02-.16-2.76-2.26-.4-3.4-3.55-.09-.25-.64-.78-.5-.95s.87-.43.87-.65V1.44s5.03-.15,5.03-.15l1.44,3.09c-1.13-.64-2-1.22-3.07-1.71-.99-.45-1.77,1.39-1.43,2.27.57,1.49,1.35,2.76,2.2,4.2.02.83-.02,2.35-.1,3.24-1.13,2.06-1.45,1.61-2.38,2.95Z"/>
      <path d="M209.35,40.22c-1.5.82,3.87,1.02,2.72,1.85l-7.28.1c-.62-.58-.8-2.16-.35-2.76,2.03-2.71,5.4,1.42,6.42-1.28l-3.07-.71-2.66-.61c-.23-.05-.68-.46-.81-.63-.91-1.26,7.23-2.5,7.88-2.43-2.75,3.3-3.48.71-5.97,2.1l2.22.8,1.07-.76,2.31,1.94c.3.25.4,1.41.03,1.53l-1.61.51c-.36.11-.71.25-.91.35ZM208.07,40.65c.3-.68-.96-1.6-1.54-1.53-.49.05-1.24.99-1.3,1.55.47.72,2.29,1.24,2.84-.01Z"/>
      <path d="M272.12,24.55c.33.1.91.76,1.01,1.08.12.37-.12,1.24-.53,1.52-.7.46-1.27-.98-1.77-1.24-2.25-1.19-3.75-3.64-2.5-6.32,1.44-3.09,2.71-1.83,2.58-3.11-.02-.24-.4-.69-.65-.81-2.93-1.37-2.51-2.85-2.38-5.86,0-.19.74-.32.82-.14.4.92-.43,4.29,2.14,4.81.72.15,1.36.37,1.68.75.37.45.73,1.86.32,2.13-.66.43-1.32.81-1.94,1.16-2.01,1.11-2.49,3.64-.97,5.37l2.21.66Z"/>
      <path d="M249.47,70.59c-1.42.37-2.41.49-3.73-.12-1.01-.47-1.4-1.89-2.18-2.91l-1.15-1.51c-.17-.23.49-.79.77-.85,2.13-.43,2.02,3.99,3.49,4.02.3,0,.62-.61.6-.97-.11-1.95-1.27-1.38-.56-2.9.12-.25.77-.3,1.09-.15l1.1,3.71c.16.38,1.32-.13,1.46-.55.51-1.57-1.35-1.95-.48-2.87.23-.24.88-.3,1.31-.19.88.23,1.14.95,1.17,1.68.08,2.12-.95,3.12-2.89,3.63Z"/>
      <path d="M253.25,73.12c1.55-1.26,5.13.28,5.8,2.77l2.58-2.59c.79-.79,2.46-.55,3.48-.58,3.66-.08,2.94,3.77,5.18,3.2.7-.18,1.47-.84,1.44-1.77-.02-.57-.26-1.09-.6-1.98.35-.15,1.48.25,2,.73.94.86-.13,3.57-.8,3.63-.58.06-1.4-.01-2.1-.03-.61-.01-1.66.22-2.24-.03-.85-1.94-2.89-3.76-5.14-2.88-2.02.8-1.81,4.4-4.12,3.91-1.67-.36-.76-2.35-2.55-3.85-.64-.54-1.69-.33-2.93-.53Z"/>
      <path d="M223.04,74.03l-1.7,3.32c-.58.36-2.3.3-2.93-.16-.88-1.48-1.98-3.43-4.01-3.18-1.66.2-2.63,2.04-3.36,3.56-.56.27-1.91.01-2.63-.35-.51-4.19-2.84-2.8-3.8-4.07-.88-1.16,2.95.52,3.14.44l1.62,2.41c.12.17.77.34.96.24,1.34-.72.58-3.22,4.74-3.01,4.54.23,3.39,2.47,4.96,2.82.33.07,1.09-.28,1.16-.6.1-.45.22-1.28.51-1.3l1.36-.1Z"/>
      <path d="M246.86,63.04l1.82-.9c-.53-.57-1.33-1.03-1.67-.7l-2.42,2.34c-.15.14-.81.25-.99.28-1.24.23,2.34-2.2-.08-5.08l5.04.02c2.05,4.8,1.61,1.91,3.07,4.87-.93.5-7.19.36-4.77-.84Z"/>
      <path d="M218.13,63.38l.11-2.98-1.09-.83c-.27-.21.18-1.19.53-1.21,1.78-.08,1.31,1.83,3.08,3.02.35-.45.13-.93-.3-1.46l1.55-2.12c3.17,3.15-.19,2.24.78,5.72.07.25.07.91-.09,1.09-.21.23-.91-.25-1.12-.48l-.81-.88c-.2-.22-.82.4-1.07.56l-.82.53c-.18.12-.73-.73-.72-.97Z"/>
      <path d="M237.41,67.98c-.59,2.66-3.56,3.18-5.86,2.83.23-.48.64-1.11.98-1.26l3.08-1.37c-.81-.91-2.93-.25-3.66-1.11-.3-.35-.86-1.94.16-2.65.29-.2,1.15.09,1.33.44,1.32,2.72,4.91-1.13,3.97,3.12Z"/>
      <path d="M225.88,70.71c-.12-.56.66-1.02,1.39-1.15.38-.07.25-1.07-.07-1.35-1.29-1.15-2.7,3.2-5.26,2.52l2.21-2.55c-.37-.35-.82-.8-1.01-1.08s.29-1.23.43-1.24c.57.36,1.18.77,1.56.87.44.11,1.28-.52,1.71-.75,1.09-.57,1.07,1.09,1.42,1.54l2.56,3.14c-1.75.75-3.26.53-4.94.05Z"/>
      <path d="M262.58,14.85c-.05.48-1.67.58-2.05.28-.45-.35-.56-1.2-.54-2.27l-2.03-.34c-.1-.75.11-2.06.56-2.71l3.05-.18c.32-.02,1.07.23,1.2.49s.21.85.17,1.21l-.37,3.52Z"/>
      <path d="M203.82,73.38l-2.03,3.21c-1.47,2.32-4.88,1.41-5.19.76-.56-1.2-.38-3.24.03-4.37,1.26-.3,2.31-.65,3.38-1.34.29,1.97-2.48,1.42-2.42,3.05.03.66.4,1.47.86,1.6.51.15,1.63-.07,1.94-.46l1.2-1.49c.52-.65.68-1.3,2.22-.96Z"/>
      <path d="M207.78,31.51c.15.69,2.11.8,2.58.33l1.25-2.35c1.34,1.06,1,2.68.28,3.56l-7.4.19c-.81-.82-1.06-2.89.11-3.37.37.94.63,1.77,1.45,2.17l1.09-2.31c.3.1.49.97.66,1.78Z"/>
      <path d="M211.76,43.5c1.04.38.8,1.79.56,2.43-.29.79-1.5,1.39-2.47.73.64-.55,1.32-1.27,1.39-1.86-2.91-2.04-2.44,2.84-5.33,2.12-1.16-.29-1.89-1.32-1.62-2.69.06-.29.46-.81.72-.84.32-.04,1.09.33.96.62-.21.44-.49,1.25-.34,1.38l1.46.22,1.42-2.12c.89-.25,2.37-.3,3.24.02Z"/>
      <path d="M254.91,63.19c.18.38.04,1.08-.14,1.44-.17.33-1.45-.07-1.52-.46l-.58-3.28-2.08-.36c-.33-.06-.12-1.22.23-1.38,1.28-.6.78,1.06,4.12.05.4-.12.71-.2.93-.2.27,0,.61.9.47,1.06-1.06.48-2.18,1.58-1.42,3.12Z"/>
      <path d="M202.48,20.1c0,.29-.19.93-.37.87s-.77-.38-.84-.56c-.15-.37.33-1.33.3-1.74-.19-3.3-.42-6.91-.19-10.12.83-.26,1.38.53,1.36,1.23l-.1,3.92-.16,6.41Z"/>
      <path d="M214.65,63.65l-.18-2.76-1.83-.22c-.34-.04-.96-.4-1.04-.71-.11-.4.49-1.04.99-1.08,1.5-.12,2.52.31,3.51,1.28.79.77,1.21,3.88-.58,4.27-.24.05-.86-.54-.88-.79Z"/>
      <path d="M227.22,61.68l.02,2.64c0,.46-1.61-.03-1.65-.54-.13-1.6-.31-2.68-.64-4.31,1.04-.39,2.33-.34,3.63.13l-1.35,2.08Z"/>
      <path d="M204.92,28.91c-.58.05-1.15-.61-.91-1.16l5.85-.14c1.35-1.12.41-1.84,1.4-2.64.84-.68,1.04,2.37.29,3.39l-6.63.55Z"/>
      <path d="M241.86,70.87l-1.23-.04c-.34-.01-.76-.83-.65-1.16.16-.48.42-1.1.3-1.38s-.62-.6-1.01-.83c-.51-.29-.93-.84-.65-1.36.18-.32.68-.58,1.16-.55l2.25.15c-.78,1.46-.5,3.47-.17,5.16Z"/>
      <path d="M220,69.7c0,.31-.35,1.08-.62,1.15-.33.09-1.09-.39-1.14-.75-.09-.65-.21-1.76-.34-2.27l-.64-2.06,2.62-.06.12,3.98Z"/>
      <path d="M198.71,66.2c-.31-.29-.95-.02-1.6.44l-.38-.94c-.19-.47-.52-1.05-.5-1.42.03-.54.91-.91,1.37-1.17l2.67-1.51c.65,1.52-1.79,1.51-1.9,2.62-.2,2.09,2.25,1.6,2.04,3.55l-1.7-1.56Z"/>
      <path d="M211.27,49.26l-4.56-.12c-.87-.02-2.07.08-2.56-.59,1.31-1.84,2.65-.15,7.19-.65.29-.03,1.14.39,1.02.64s-.79.73-1.09.72Z"/>
      <path d="M241.38,60.93l-.91,2.07c-.65-.15-3.9-3.06-2.82-3.74l3.06.34.67,1.33Z"/>
      <path d="M229.17,77.42l-.79-2.29c1.45.33,2.32.32,3.66-.35l-.59,2.45c-.18.73-1.98,1.06-2.28.19Z"/>
      <path d="M250.84,76.03c.29.16-.29,1.22-.72,1.39-.46.18-1.66.04-1.81-.49l-.66-2.17c1.22.7,1.65.96,3.2,1.26Z"/>
      <path d="M242,4.09c-1.41.63-1.88-.55-2.08-1.58l-.15-.72c-.03-.13.31-.2.69-.38l1.53,2.68Z"/>
      <path d="M203.55,7.11c-1.22.88-2.01.86-2.92.16-.12-.09-.29-.43-.21-.56.12-.17.73-.61.92-.53l2.21.93Z"/>
      <path class="cls-1" d="M263.19,71.32c-2.04.32-4.25-.01-6.37,0-.53,0-1.35.11-1.71-.11s-.38-1.14-.25-1.52l1.02-3.05c.35-1.05,1.58-2.09,2.13-3.12.59-1.11,1.41-1.5,2.5-1.98l2.91-1.3c.84-.38,2.43-.41,2.9.19-.6,2.44.29,2.03.34,5.81l.05,3.42c0,.32,0,.74-.04.96-.04.28-.86.31-1.16.36l-2.32.36ZM264.13,69.08c-.06.28.57.89.83.81.65-.19.2-2.34.2-4.47,0-.74.73-1.96-.69-2.12l-2.04,2.04c-.6-1.04-.9-1.65-1.66-1.98-.62-.27-1.95-.07-2.3.54-.88,1.54-.7,3.07-.43,4.79.15.91,1.28,1.57,2.17,1.55.7-.01,2.06-.65,2.12-1.3l.24-2.44c.52-.02,1.42.33,1.67.7.22.32.04,1.11-.11,1.89Z"/>
      <path class="cls-1" d="M214.09,69.96l.25.98c.05.2-.61.57-.84.57l-9.27.05c-.83,0-1.35-.71-1.28-1.52l.56-6.09c.07-.76-.39-2.25.08-2.82,1.24-1.32,6.79,1.02,7.49,2.36,1.2.98,1.89,2.18,2.28,3.68l.73,2.8ZM208.62,70.45c.56.64,2.14-.44,1.86-1.17-.72-1.88-.53-3.63.25-5.45-2.62.09-5.8-1.32-6.48-.17-.16.27,0,1.09.25,1.33,1.75,1.69.21,2.47.76,5.66.04.23,1.02.46,1.14.26.09-.15.26-.45.18-.61l-.35-.66c1.1-1.04-.59-3.88.62-4.02,3.33-.38.08,2.92,1.76,4.82Z"/>
      <path class="cls-1" d="M269.11,37.28c-.73.62-1.13,1.07-2.04,1.96-.12-.85-.82-7.39.03-7.81l1.65,2.97,2.09,1.42-1.73,1.47Z"/>
      <path class="cls-1" d="M240.34,41.64l-1.16-2.37c1.66-1.42-1.29-5.06,2.03-6.29.72-.27,1.73,1.13,1.71,1.95l-.19,5.78c-.01.38-.45,1.09-.69,1.35-.28.31-1.51-.02-1.7-.42Z"/>
      <path class="cls-1" d="M235.5,42.99c-.18.64-1.94.51-2.36,0-.68-.82-1.15-2.47-.55-3.47.4-.67,2.47-.73,2.84-.06.51.93.4,2.42.07,3.53Z"/>
      <path class="cls-1" d="M219.35,14.14c.14-.22,1,.02,1.24.16.27.16.29.8.06,1.01-.29.26-.68.38-.93.3-.35-.12-.59-1.09-.36-1.46Z"/>
      <path class="cls-1" d="M228.09,42.55l-1.68,1.76c-2.81-1.65-1.58-2.42-1.96-7.25-.1-1.3,1.16-3.33,2.53-2.63,1.66.85.23,4.86,1.1,8.12Z"/>
      <path class="cls-1" d="M208.07,40.65c-.55,1.25-2.37.74-2.84.01.06-.56.81-1.5,1.3-1.55.59-.06,1.84.86,1.54,1.53Z"/>
      <path d="M264.13,69.08c.15-.77.33-1.57.11-1.89-.26-.37-1.16-.72-1.67-.7l-.24,2.44c-.06.65-1.42,1.29-2.12,1.3-.89.02-2.02-.64-2.17-1.55-.28-1.72-.45-3.25.43-4.79.35-.61,1.68-.8,2.3-.54.77.33,1.07.94,1.66,1.98l2.04-2.04c1.43.16.69,1.37.69,2.12,0,2.13.45,4.28-.2,4.47-.27.08-.89-.53-.83-.81ZM259.92,64.85c-1.15.23-.89,3.31-.11,3.64.43.22,1.45-.63,1.43-1.11-.04-.83-.46-2.7-1.33-2.53Z"/>
      <path d="M208.62,70.45c-1.68-1.91,1.56-5.2-1.76-4.82-1.21.14.48,2.98-.62,4.02l.35.66c.08.16-.09.46-.18.61-.12.2-1.1-.03-1.14-.26-.55-3.19.99-3.97-.76-5.66-.25-.24-.41-1.06-.25-1.33.68-1.15,3.86.27,6.48.17-.78,1.82-.97,3.57-.25,5.45.28.73-1.3,1.81-1.86,1.17Z"/>
      <path class="cls-1" d="M259.92,64.85c.86-.17,1.29,1.7,1.33,2.53.02.48-1.01,1.33-1.43,1.11-.78-.33-1.04-3.41.11-3.64Z"/>
    </g>
    <g>
      <path d="M140.91,76.33c-3.48,1.5-7.08,1.28-10.77.76l-4.53-.63c-1.5-.21-7.05-1.97-8.4-2.78-3.3-1.98-4.12-.56-4.68-2.85-1.86-.97-3.34-2.39-4.86-3.8-2.84-2.64-5.94-5.94-7.76-9.4l-1.33-2.54c-2.41-4.59-3.86-10.6-3.65-15.79.32-7.96.72-11.79,4.42-18.88,1.17-2.25,2.46-4.19,4.23-6.03,2.47-2.56-.18-1.31,4.94-5.04.78-.57,1.4-1.12,2.14-1.71l2.01-1.6c1.79-1.43,6.8-3.58,9.03-4.17,5.29-1.41,5.44-1.64,10.8-1.82,6.71-.22,9.42.49,15.7,2.37l2.37.71c3.01.9,8.1,5.47,9.3,6.32l1.89,1.34,3.25,3.7c1.46,1.66,3.57,4.99,4.66,7.15l1.9,3.79c.69,1.38,1.04,2.74,1.32,4.29l.57,3.18c.45,2.52.35,7.47.15,10.13l-.29,3.94c-.05.67-.29,1.91-.43,2.54-2.34,3.05-.91,2.37-3.19,6.28-1.57,2.68-3.18,5.14-5.13,7.52-.76.93-1.4,2.03-2.35,2.81-5.91,4.84-10.41,8.03-18.07,9.91-1.07.26-2.07.69-3.22.31ZM146.2,74.27c1.5-.55,3.23-1.04,4.55-1.76l3.47-1.9c2.49-1.36,4.77-3.1,6.77-5.09.76-.75,1.8-1.56,2.34-2.35l1.37-2,1.68-2.47,1.74-2.66c.41-.62,1.73-3.77,2.03-4.68.36-1.08.34-2.52.8-3.48.42-.88.33-1.45.5-2.4l.91-5.11c.27-1.51-.96-8.82-1.41-10.64-.25-1.02-1.29-2.11-1.34-3.19-.05-1.19-.4-2.11-.91-3.16-1.01-2.11-1.97-4.3-3.42-6.15-2.05-2.61-4.31-4.87-6.8-7-.33-.85-1.02-1.47-1.96-1.59-1.06-.14-1.67-.97-2.61-1.37l-5.43-2.29c-1-.42-2.13-1.44-3.04-1.69-1.06-.29-2.02-.46-2.98-.79-1.54-.54-2.92-.97-4.55-.54-3.08-.84-6.2-.7-9.34-.15l-3,.53c-3.37.59-9.56,3.47-12.55,5.32l-2.61,1.61c-.59.36-1.39,1.41-1.88,1.93l-2.96,3.11c-2.45,2.58-7.69,10.84-7.79,14.61-1.17,2.77-1.3,5.51-1.14,8.46.04.86-.22,2-.08,2.94.19,1.25.02,2.77.35,3.88l1.79,6.05,1.48,4.96c.22.74,1.99,3.57,2.86,4.35.43,1.03.89,1.8,1.65,2.61l2.63,2.79c1.19,1.26,2.03,2.54,3.7,3.3.78.36,1.77,1.7,2.55,2.14,3.97-.57,2.75,2.22,6.31,3.08l3.28.8c3.53.86,6.66,1.63,10.23,1.68l4.48.07c.89.01,2.1-.02,2.87-.31,2.88-1.06,2.4-.34,5.46-1.46Z"/>
      <path class="cls-1" d="M146.2,74.27c-3.05,1.13-2.58.4-5.46,1.46-.77.28-1.98.32-2.87.31l-4.48-.07c-3.58-.05-6.7-.82-10.23-1.68l-3.28-.8c-3.56-.87-2.33-3.66-6.31-3.08-.79-.44-1.77-1.78-2.55-2.14-1.67-.76-2.51-2.04-3.7-3.3l-2.63-2.79c-.77-.81-1.22-1.58-1.65-2.61-.87-.78-2.64-3.62-2.86-4.35l-1.48-4.96-1.79-6.05c-.33-1.1-.17-2.63-.35-3.88-.14-.94.13-2.08.08-2.94-.15-2.95-.03-5.69,1.14-8.46.1-3.76,5.33-12.03,7.79-14.61l2.96-3.11c.5-.52,1.3-1.57,1.88-1.93l2.61-1.61c2.99-1.85,9.19-4.73,12.55-5.32l3-.53c3.13-.55,6.25-.69,9.34.15,1.63-.43,3.01,0,4.55.54.96.33,1.92.51,2.98.79.91.25,2.04,1.27,3.04,1.69l5.43,2.29c.94.4,1.55,1.23,2.61,1.37.94.12,1.63.75,1.96,1.59,2.49,2.12,4.75,4.39,6.8,7,1.46,1.85,2.41,4.04,3.42,6.15.51,1.06.86,1.98.91,3.16.05,1.08,1.09,2.17,1.34,3.19.45,1.82,1.68,9.13,1.41,10.64l-.91,5.11c-.17.95-.08,1.52-.5,2.4-.46.96-.44,2.4-.8,3.48-.3.91-1.63,4.06-2.03,4.68l-1.74,2.66-1.68,2.47-1.37,2c-.54.79-1.58,1.6-2.34,2.35-2,1.99-4.29,3.73-6.77,5.09l-3.47,1.9c-1.32.72-3.05,1.21-4.55,1.76ZM134.52,5.91c.68-.46.24-1.64-.12-2.1-.27-.35-1.28-.22-1.7.17-.14.74.91,2.55,1.83,1.94ZM126.29,8.95c2.3.43,4.25.16,6.11-.57-1.17-.97-1.57-1.88-1.68-3.1-.12-1.39-1.54-1.57-2.58-1.3l-2.33.59c.03.36.07.91.27.91l1.1.03c.49.01,1.47.08,1.73.39.23.27.47.91.58,1.32-1.21.57-2.17.68-3.2,1.73ZM140.85,8.91c-.95-1.8-1.02-2.51-.96-4.06-.2-.84-2.18-1.29-3.1-1.07l-.86.21c-.18.04-.26.75-.08.78l.92.16c.7.12,1.91.33,2.22,1.02.18.41-.47,1.31-.82,1.55-1.12.77-2.44-.61-2.75.52-.4,1.5,4.64.97,5.42.9ZM147.08,11.39c.19-1.06.23-1.73.41-2.05.35-.55,1.06-1.66,1.32-2.21.11-.22-1.01-.58-1.1-.35l-.31.79c-.09.22-.66.51-.9.48-1.26-.16-.85-2.36-2.82-3.17-.12.31-.17,1.16-.18,1.52-.53.41-1.71,1.32-2.2,1.81-.23.23.41,1.29.7,1.16,1.53-.71,1.79-1.35,2.6-1.07,1.02.35.61,2.02,2.49,3.09ZM124.17,7.57c-.66-.8-4.6.94-4.59,1.83.18,1.12,5.36-.76,4.59-1.83ZM117.49,10.64c.92-.73.26-2.04-.48-2.36-.54-.23-1.93.4-1.82,1,.48.62,1.66,1.18,2.31,1.36ZM152.67,10.58c-.61-1.15-1.87-2.14-3.16-1.01,1.23,1.82,3.74,2.09,3.16,1.01ZM157.81,15.11c.33-.42,1.22-1.45.79-1.92l-2.84-3.15c-.2-.22-.86-.35-1.07-.22s-.41.89-.32,1.14c.61,1.67,2.54,1.52,2.81,3.32-1.92,2.18-3.5-1.18-4.48.61.82,1.07,3.4,2.4,5.1.22ZM131.49,66.81l3.12.18c1.45.08,2.99-.14,4.4-.4l3.26-.61c2.09-.39,4.03-1.55,6.01-2.33.72-.28,1.49-.54,2.07-1,2.15-1.75,4.54-3.27,6.18-5.49,2.23-3.01,4.08-6.18,5.37-9.62.56-1.49.77-2.98,1-4.49.55-3.61.36-7.04-.6-10.55-.91-3.33-.36-3.72-2.31-6.43-.93-1.3-1.53-3.14-2.57-4.43s-2.61-2.54-3.8-3.86c-1.79-1.98-3.8-3.14-6.25-4.07-2.24-.85-4.4-2.11-6.74-2.66-11.94-2.8-21.86,1.5-29.55,10.52-2.51,2.94-3.83,6.31-4.68,10.07-.27,1.21-.84,2.52-1.28,3.69-.21.55.26,1.77.25,2.37-.03,2.7-.18,5.4.94,7.91.33.73.43,1.44.79,2.26l2.43,5.45c.75,1.68,1.81,3.02,3.09,4.18,1.96,1.79,3.81,3.48,5.92,4.95,4.26,2.96,2.66,1.01,6.98,3.41l-.77.76c-.17.16.16.84.33,1.04.65.81,1.92,1.01,3,.56l-2.24-2.49c3.21-.32-.24.75,5.65,1.09ZM112.31,17.24c1.42-.78,2.61-1.99,3.5-3.21l-1.21-2.26c-.21-.4-.79-1.03-1.18-1.14s-1.41.11-1.74.44l-2.29,2.27c.16.64.6,1.59,1.01,2.07.27.31,1.4.44,1.64.13.26-.33.71-1.09.72-1.2l-1.62.17c-.24.02-.31-.81-.19-1.01.54-.87,1.68-1.48,2.53-1.2.43.14.85.92.88,1.42.08,1.47-3.17,2.04-2.05,3.52ZM159.72,20.34c-.14.11-.24.87-.06.83,1.68-.3,1.84-.47,3.42-2.67l-1.71-2.2c-1.45-1.87-1.71.75-5.15,1.38l1.13,1.42,1.73-1.4c.55-.45,1.22-.77,1.79-.52.45.2,1.25,1.23.81,1.58l-1.97,1.58ZM109.84,19.23c.45-1,.11-1.49-.52-1.92l-1.76-1.2c-.24-.16-1.18.48-1,.71.14.2.5.49.79.69l2.49,1.72ZM105.87,22.42c.33,0,.97-.5.96-.82s-.27-1.06-.59-1.07c-.25,0-.79.1-1.16.21-.3.09-.58.88-.51,1.19s.81.48,1.3.49ZM163.52,24.71c.71-.01,1.33-.16,1.43-.47.08-.26.12-.93-.09-1.07s-.8-.29-1.17-.31c-.33-.02-.99.54-1.12.84s.58,1.02.96,1.01ZM101.06,30.19c-2.02-.88.73-4.4,1.93-4.35,2.04.08,2.57,1.75,3.48.94,1.01-.89-2.47-2.83-4.11-2.59-3.16.45-2.99,5.76-2.22,6.96.4.63,1.71,1.19,2.46.88l2.46-1.02c.17-.43-.82-.72-1.23-.87l-1.35-.5c-.31-.12-1.08.69-1.42.55ZM167.05,32.53c.58-.72,1.16-1.49,1.5-2.16.42-.83-.32-2.05-.96-2.5-1.48-1.03-4.25.16-4.17.71l.38,2.64c.74.81,2.04,1.38,3.24,1.31ZM167.6,34.27l-1.53,2.05-.63-2.12c-.07-.25-.54-.76-.64-.57-.07.13-.31.64-.29.79l.54,2.91,4.21-.16c.31-.18-.15-1.16-.42-1.35l-1.25-1.55ZM101.68,37.99l-1.27-1.64c.62-1.88,3.66.32,4.04-1.2.23-.91-1.42-1.36-2.18-1.2l-3.83.77-.04,2.02c.08.42,1.32,1.66,1.92,1.79.34.08,1.28-.34,1.36-.55ZM169.68,42.45c.27-.31-.42-1.38-.71-1.66l.95-2.91-4.37,1.3c-.34.1-.82.94-.67,1.26.65,1.32.78.29,2.82,1.93.37.3,1.54.57,1.97.08ZM103.39,46.34l-.55-1.87c-.33-1.15.17-2.92-1.82-3.45-.01,1.3.52,5.03,1.1,5.64.21.23,1.36-.03,1.27-.33ZM169.04,45.66c.11-.14.08-.95-.17-.98l-1.26-.14-2.73-2.59c.28,1.12.53,1.69.87,2.56l-1.7,1.6c1.88,1.3,2.07-1.25,4.98-.45ZM166.26,50.75c.46-.82,1.35-2.58.09-3.01-.83-.29-2.03,2.47-1.43,3.35.17.25,1.17-.03,1.34-.34ZM113.02,59.87l-2.41-.5c-.26-1.08-1.29-1.48-2.08-2.03-.31-.71.36-2.26-.86-2.7-.94-.34-1.83-1.18-2.14-1.86-.55-1.19-.25-2,.33-3.25-.67-.1-1.8-.13-2.39.07-1.46,1.81,1.81,5.23,3.33,6.22-.61,3.84,2.83,2.09,3.09,5.02.04.51,1.14,1.4,1.46,1.02l1.67-1.99ZM161,55.33l3.05.36c.6.07,1.36-.19,1.92-.64l-2.05-2.85-.69-1.04c-.15-.23-.94.11-.95.25.9,1.11,1.45,1.76,2.14,3.07l-2.58-.21c-.29-.02-.8.06-1.05.13-.19.05,0,.91.21.94ZM162.45,59.01c.26.17,1.04.02.92-.2-.11-.2-.42-.65-.57-.78l-2.72-2.39c-.22-.19-.89.46-.85.75s.37.77.66.96l2.56,1.66ZM156.39,61.34l2.58.91c.53.19,1.39.32,1.65-.02-.87-1.76-.3-4.96-2.6-4.32.17.8.73,1.94,1.23,2.78l-.04.42c0,.08-.54.12-.62.09l-2.62-.97c-.16-.06-.4.82-.24.87l.65.23ZM113.35,64.47c.91-.87,1.82-1.53,1.87-2.95-.47-.2-1.7-.17-2.01.07-.07.81-.18,1.48-.61,1.9l-1.95,1.88c.24.22,1.14.59,1.42.33l1.28-1.23ZM155.16,66.53c.26-1.28,1.28-2.18,3.03-1.85-.18-.45-.55-.96-.87-1.12l-2.43-1.22c-.34-.17-1.04-.16-1.33-.04-1.12.45.31,1.4.47,4.16.01.24.39.93.57.82s.52-.53.57-.77ZM117.22,67.4c.1-1.17-.17-1.57-.86-1.94-.24-.13-.88-.16-1.13-.07s-.34.87-.14,1.04c.45.37,1.49.8,2.12.97ZM152.35,66.68c.12-.18.25-.5.31-.68.19-.57-2.78.32-2.52.91.52.84,1.75.45,2.21-.24ZM123,70.93c1.41.75,2.92,1.58,4.36,1.11.47-.15.85-1.08.78-1.51-.07-.36-.63-1.2-.97-1.06s-.87.98-1.16,1.28c-.42.44-1.92-.42-2.12-1-.33-.95-.2-2.3-.06-3.29.03-.34-1.54-.5-1.53-.08l.06,3.41c-2.04,1.65-3.9-2.43-4.52-1.42-.2.48-.23.98-.5,1.08l-1.4.5,2.2,1.32c1.14.68,4.08.96,4.31.58l.56-.91ZM149.9,70.3c.25-.09.73-.4.9-.53.13-.1-.1-.76-.26-.74l-2.01.27c-.47-.97-1.08-2.2-2.27-2.56-.57.23-.48,1.42-.16,1.89l1.73,2.43,2.06-.76ZM144.34,67.51c-1-.07-2.52.3-3.16,1.18-.68.92,2.91.01,3.16-1.18ZM139.73,71.52l-.47-1.75.95-1.11-2.98-.04c-.24,0-.91.52-.8.71s.44.35.9.61c1.38.78.2,3.53,1.55,3.44.32-.02,1.27-.15,1.19-.44l-.34-1.41ZM143.13,71.36l-.22-.73,2.44-1.13c-1.6-.9-2.88.1-3.98.98l1.05,2.01c1.35.04,2.63-.1,3.65-1.1-.51-.84-2.72.72-2.94-.03ZM133.92,72.36c.19-.39-.44-1.2-.8-1.39-.31-.16-1.14-.01-1.52.36-.32.31.13,1.24.45,1.55.35.33,1.6.05,1.87-.52Z"/>
      <path d="M131.49,66.81c-5.89-.33-2.44-1.41-5.65-1.09l2.24,2.49c-1.08.45-2.35.26-3-.56-.17-.21-.49-.88-.33-1.04l.77-.76c-4.31-2.4-2.72-.46-6.98-3.41-2.12-1.47-3.96-3.16-5.92-4.95-1.28-1.16-2.34-2.5-3.09-4.18l-2.43-5.45c-.36-.81-.47-1.53-.79-2.26-1.12-2.51-.97-5.21-.94-7.91,0-.61-.46-1.83-.25-2.37.44-1.17,1.01-2.48,1.28-3.69.85-3.76,2.18-7.13,4.68-10.07,7.69-9.02,17.61-13.32,29.55-10.52,2.34.55,4.5,1.81,6.74,2.66,2.45.93,4.45,2.09,6.25,4.07,1.2,1.32,2.72,2.53,3.8,3.86s1.64,3.13,2.57,4.43c1.94,2.71,1.4,3.1,2.31,6.43.96,3.51,1.15,6.95.6,10.55-.23,1.5-.45,3-1,4.49-1.29,3.44-3.15,6.61-5.37,9.62-1.64,2.22-4.04,3.74-6.18,5.49-.58.47-1.35.72-2.07,1-1.98.78-3.92,1.94-6.01,2.33l-3.26.61c-1.41.26-2.95.48-4.4.4l-3.12-.18ZM161.32,38.84c0-15-12.16-27.16-27.16-27.16s-27.16,12.16-27.16,27.16,12.16,27.16,27.16,27.16,27.16-12.16,27.16-27.16Z"/>
      <path d="M123,70.93l-.56.91c-.23.38-3.17.1-4.31-.58l-2.2-1.32,1.4-.5c.27-.1.3-.59.5-1.08.62-1,2.48,3.07,4.52,1.42l-.06-3.41c0-.41,1.56-.26,1.53.08-.13.99-.27,2.33.06,3.29.2.58,1.7,1.43,2.12,1,.29-.3.8-1.14,1.16-1.28s.9.7.97,1.06c.08.42-.31,1.35-.78,1.51-1.45.47-2.95-.35-4.36-1.11Z"/>
      <path d="M113.02,59.87l-1.67,1.99c-.32.38-1.41-.51-1.46-1.02-.26-2.93-3.7-1.18-3.09-5.02-1.51-.98-4.79-4.41-3.33-6.22.59-.2,1.72-.17,2.39-.07-.58,1.25-.88,2.07-.33,3.25.31.68,1.2,1.51,2.14,1.86,1.22.44.55,1.99.86,2.7.78.55,1.81.95,2.08,2.03l2.41.5Z"/>
      <path d="M101.06,30.19c.34.15,1.1-.66,1.42-.55l1.35.5c.41.15,1.4.44,1.23.87l-2.46,1.02c-.74.31-2.06-.25-2.46-.88-.76-1.21-.94-6.51,2.22-6.96,1.64-.23,5.12,1.7,4.11,2.59-.91.8-1.45-.86-3.48-.94-1.2-.05-3.96,3.47-1.93,4.35Z"/>
      <path d="M126.29,8.95c1.03-1.05,1.99-1.15,3.2-1.73-.11-.4-.35-1.05-.58-1.32-.27-.31-1.24-.38-1.73-.39l-1.1-.03c-.2,0-.24-.55-.27-.91l2.33-.59c1.04-.26,2.46-.09,2.58,1.3.1,1.22.51,2.13,1.68,3.1-1.86.73-3.8,1-6.11.57Z"/>
      <path d="M147.08,11.39c-1.88-1.07-1.47-2.74-2.49-3.09-.81-.27-1.07.36-2.6,1.07-.29.14-.94-.92-.7-1.16.49-.49,1.67-1.4,2.2-1.81.01-.36.06-1.21.18-1.52,1.97.8,1.56,3.01,2.82,3.17.24.03.81-.26.9-.48l.31-.79c.09-.23,1.21.13,1.1.35-.27.54-.97,1.66-1.32,2.21-.18.32-.22.99-.41,2.05Z"/>
      <path d="M112.31,17.24c-1.12-1.48,2.13-2.05,2.05-3.52-.03-.5-.45-1.27-.88-1.42-.85-.29-2,.32-2.53,1.2-.12.2-.05,1.03.19,1.01l1.62-.17c-.01.1-.46.87-.72,1.2-.24.31-1.38.18-1.64-.13-.41-.48-.85-1.43-1.01-2.07l2.29-2.27c.33-.33,1.34-.55,1.74-.44s.97.74,1.18,1.14l1.21,2.26c-.89,1.22-2.08,2.43-3.5,3.21Z"/>
      <path d="M157.81,15.11c-1.71,2.18-4.29.86-5.1-.22.98-1.78,2.55,1.57,4.48-.61-.28-1.8-2.2-1.65-2.81-3.32-.09-.25.11-1.01.32-1.14s.87,0,1.07.22l2.84,3.15c.43.47-.46,1.5-.79,1.92Z"/>
      <path d="M169.68,42.45c-.44.5-1.61.22-1.97-.08-2.04-1.65-2.17-.61-2.82-1.93-.15-.31.33-1.16.67-1.26l4.37-1.3-.95,2.91c.29.27.99,1.34.71,1.66Z"/>
      <path d="M140.85,8.91c-.78.07-5.83.6-5.42-.9.3-1.13,1.63.25,2.75-.52.35-.24,1.01-1.14.82-1.55-.31-.69-1.52-.9-2.22-1.02l-.92-.16c-.18-.03-.1-.73.08-.78l.86-.21c.92-.22,2.9.23,3.1,1.07-.06,1.55,0,2.26.96,4.06Z"/>
      <path d="M101.68,37.99c-.08.21-1.02.63-1.36.55-.61-.13-1.84-1.38-1.92-1.79l.04-2.02,3.83-.77c.76-.15,2.41.29,2.18,1.2-.38,1.52-3.42-.68-4.04,1.2l1.27,1.64Z"/>
      <path d="M167.05,32.53c-1.2.07-2.5-.5-3.24-1.31l-.38-2.64c-.08-.55,2.69-1.74,4.17-.71.64.44,1.37,1.67.96,2.5-.34.67-.92,1.44-1.5,2.16ZM167.35,30.76c.25-.57.29-1.62,0-1.85-.36-.29-1.32-.49-1.69-.31s-1.01.87-1.1,1.34c-.08.43.57,1.13.99,1.27.44.15,1.61-.03,1.8-.45Z"/>
      <path d="M159.72,20.34l1.97-1.58c.43-.35-.36-1.38-.81-1.58-.57-.25-1.24.08-1.79.52l-1.73,1.4-1.13-1.42c3.44-.63,3.7-3.25,5.15-1.38l1.71,2.2c-1.58,2.2-1.73,2.37-3.42,2.67-.19.03-.09-.72.06-.83Z"/>
      <path d="M155.16,66.53c-.05.24-.38.66-.57.77s-.56-.58-.57-.82c-.15-2.76-1.59-3.71-.47-4.16.3-.12.99-.13,1.33.04l2.43,1.22c.32.16.69.67.87,1.12-1.75-.33-2.77.56-3.03,1.85Z"/>
      <path d="M167.6,34.27l1.25,1.55c.27.19.73,1.17.42,1.35l-4.21.16-.54-2.91c-.03-.14.22-.66.29-.79.1-.19.57.32.64.57l.63,2.12,1.53-2.05Z"/>
      <path d="M139.73,71.52l.34,1.41c.07.3-.87.42-1.19.44-1.35.08-.17-2.66-1.55-3.44-.46-.26-.79-.42-.9-.61s.56-.71.8-.71l2.98.04-.95,1.11.47,1.75Z"/>
      <path d="M149.9,70.3l-2.06.76-1.73-2.43c-.33-.46-.41-1.65.16-1.89,1.18.36,1.8,1.59,2.27,2.56l2.01-.27c.16-.02.39.64.26.74-.17.13-.65.44-.9.53Z"/>
      <path d="M161,55.33c-.21-.03-.4-.89-.21-.94.25-.07.76-.15,1.05-.13l2.58.21c-.69-1.31-1.25-1.96-2.14-3.07.02-.14.8-.47.95-.25l.69,1.04,2.05,2.85c-.56.45-1.32.71-1.92.64l-3.05-.36Z"/>
      <path d="M156.39,61.34l-.65-.23c-.16-.06.08-.93.24-.87l2.62.97c.08.03.61,0,.62-.09l.04-.42c-.51-.83-1.06-1.97-1.23-2.78,2.3-.65,1.73,2.56,2.6,4.32-.26.34-1.13.2-1.65.02l-2.58-.91Z"/>
      <path d="M169.04,45.66c-2.91-.79-3.1,1.75-4.98.45l1.7-1.6c-.35-.88-.6-1.44-.87-2.56l2.73,2.59,1.26.14c.25.03.27.84.17.98Z"/>
      <path d="M103.39,46.34c.09.3-1.06.56-1.27.33-.58-.61-1.11-4.34-1.1-5.64,1.99.52,1.49,2.3,1.82,3.45l.55,1.87Z"/>
      <path d="M113.35,64.47l-1.28,1.23c-.27.26-1.17-.11-1.42-.33l1.95-1.88c.44-.42.54-1.09.61-1.9.31-.24,1.55-.27,2.01-.07-.05,1.43-.96,2.08-1.87,2.95Z"/>
      <path d="M143.13,71.36c.22.76,2.44-.8,2.94.03-1.03.99-2.31,1.13-3.65,1.1l-1.05-2.01c1.1-.88,2.38-1.89,3.98-.98l-2.44,1.13.22.73Z"/>
      <path d="M124.17,7.57c.77,1.08-4.41,2.96-4.59,1.83-.01-.89,3.93-2.63,4.59-1.83Z"/>
      <path d="M162.45,59.01l-2.56-1.66c-.29-.19-.63-.67-.66-.96s.63-.94.85-.75l2.72,2.39c.16.14.46.58.57.78.12.22-.66.37-.92.2Z"/>
      <path d="M166.26,50.75c-.17.3-1.17.58-1.34.34-.6-.88.6-3.64,1.43-3.35,1.26.43.37,2.19-.09,3.01Z"/>
      <path d="M109.84,19.23l-2.49-1.72c-.29-.2-.65-.5-.79-.69-.17-.24.76-.88,1-.71l1.76,1.2c.63.43.98.92.52,1.92Z"/>
      <path d="M117.49,10.64c-.65-.17-1.82-.74-2.31-1.36-.11-.61,1.28-1.24,1.82-1,.74.32,1.4,1.63.48,2.36Z"/>
      <path d="M134.52,5.91c-.92.61-1.97-1.19-1.83-1.94.42-.39,1.43-.51,1.7-.17.36.46.8,1.65.12,2.1Z"/>
      <path d="M152.67,10.58c.58,1.09-1.93.81-3.16-1.01,1.29-1.14,2.55-.14,3.16,1.01Z"/>
      <path d="M133.92,72.36c-.27.56-1.52.85-1.87.52-.32-.3-.77-1.23-.45-1.55.38-.37,1.21-.52,1.52-.36.36.19.99,1,.8,1.39Z"/>
      <path d="M163.52,24.71c-.38,0-1.09-.71-.96-1.01s.79-.86,1.12-.84c.37.02.96.16,1.17.31s.17.82.09,1.07c-.1.31-.72.46-1.43.47Z"/>
      <path d="M105.87,22.42c-.48,0-1.22-.18-1.3-.49s.21-1.09.51-1.19c.36-.11.9-.22,1.16-.21.32,0,.59.75.59,1.07s-.63.83-.96.82Z"/>
      <path d="M117.22,67.4c-.63-.17-1.67-.6-2.12-.97-.21-.17-.11-.95.14-1.04s.89-.06,1.13.07c.69.37.95.77.86,1.94Z"/>
      <path d="M144.34,67.51c-.25,1.19-3.84,2.1-3.16,1.18s2.16-1.25,3.16-1.18Z"/>
      <path d="M152.35,66.68c-.45.69-1.69,1.07-2.21.24-.26-.59,2.71-1.48,2.52-.91-.06.17-.19.5-.31.68Z"/>
      <path class="cls-1" d="M161.32,38.84c0,15-12.16,27.16-27.16,27.16s-27.16-12.16-27.16-27.16,12.16-27.16,27.16-27.16,27.16,12.16,27.16,27.16ZM140.21,42.09c.92.82,3.11,1.15,3.93-.4.11-3.83,0-2.9-2.11-4.57-.32-.26-.22-1.47.13-1.67l1.54-.89c-.04-.95-1.66-1-2.39-.58-.98.57-1.24,2.95-.73,3.81.43.73,2.52.56,2.54,1.37l.04,1.26c.01.34-.35,1.28-.68,1.29-1.21.03-.34-.19-2.26-.76-.24-.07-.22.97-.01,1.15ZM149.26,42.05c.64-.79.67-3,.1-3.77-1.25-.4-2.54-2.06-1.58-3.11.27-.3.98-.71,1.39-1.1-.98-.32-1.91-.39-2.58-.11-.6,1.31-.84,3.12-.19,4.23,1.43-.16,2.11.57,2.43,1.77.19.7-.68,2.23-1.52,1.88-.71-.29-1.27-1.12-1.93-.52.56,1.44,2.9,1.94,3.88.73ZM132.06,42.35l-.11-7.41c0-.21-.28-.6-.44-.7s-.6.52-.59.73l.23,7.09c0,.22.38.79.48.93s.41-.39.44-.63ZM134.32,40.62c-.36-1.18.43-3.85-.58-6.58-.36,1.43-.43,2.62-.38,3.89l.17,4.96c1.18-.49,1.08-1.38.8-2.28ZM121.44,42.34c.39,1.12,2.05,1.97,2.93,1.26,1.36-1.1,1.27-3.36.36-4.69-.27-.4-.71-1.26-.51-1.59l.76-1.22c.12-1.57-2.33-1.74-3.1-1.11-.14.11-.09.74.09.77l.7.11c.32.05,1.16.39,1.11.7-.22,1.22-.93.56-1.17,2.08-.12.73,2.26.34,2,2.35-.07.53-.13.94-.25,1.21-.57,1.25-2.4-.77-2.91.12Z"/>
      <path class="cls-1" d="M167.35,30.76c-.18.42-1.35.6-1.8.45-.41-.14-1.07-.84-.99-1.27.09-.47.73-1.16,1.1-1.34s1.33.02,1.69.31c.29.23.25,1.28,0,1.85Z"/>
      <path d="M140.21,42.09c-.2-.18-.22-1.22.01-1.15,1.92.57,1.05.79,2.26.76.33,0,.69-.95.68-1.29l-.04-1.26c-.03-.8-2.11-.63-2.54-1.37-.51-.86-.25-3.24.73-3.81.73-.43,2.35-.38,2.39.58l-1.54.89c-.36.21-.46,1.42-.13,1.67,2.1,1.66,2.22.74,2.11,4.57-.83,1.56-3.01,1.22-3.93.4Z"/>
      <path d="M149.26,42.05c-.98,1.21-3.32.71-3.88-.73.65-.6,1.22.23,1.93.52.85.35,1.71-1.18,1.52-1.88-.32-1.2-1.01-1.93-2.43-1.77-.65-1.11-.41-2.92.19-4.23.67-.27,1.6-.21,2.58.11-.41.38-1.11.8-1.39,1.1-.96,1.05.33,2.71,1.58,3.11.56.77.54,2.99-.1,3.77Z"/>
      <path d="M121.44,42.34c.51-.9,2.34,1.12,2.91-.12.12-.27.18-.68.25-1.21.26-2-2.12-1.61-2-2.35.25-1.53.95-.86,1.17-2.08.06-.32-.78-.65-1.11-.7l-.7-.11c-.18-.03-.23-.66-.09-.77.77-.63,3.22-.46,3.1,1.11l-.76,1.22c-.21.33.23,1.19.51,1.59.91,1.32,1,3.59-.36,4.69-.88.71-2.53-.14-2.93-1.26Z"/>
      <path d="M132.06,42.35c-.03.24-.35.77-.44.63s-.47-.71-.48-.93l-.23-7.09c0-.21.42-.83.59-.73s.44.49.44.7l.11,7.41Z"/>
      <path d="M134.32,40.62c.28.9.38,1.79-.8,2.28l-.17-4.96c-.04-1.27.03-2.46.38-3.89,1.02,2.72.22,5.39.58,6.58Z"/>
    </g>
  </g>
</svg>